<svg width="120" height="29" viewBox="0 0 120 29" fill="none" xmlns="http://www.w3.org/2000/svg">
<g clip-path="url(#clip0_956_21)">
<path fill-rule="evenodd" clip-rule="evenodd" d="M112 11.1792C112.602 10.5347 113.304 10.2125 114.104 10.2125C114.562 10.2125 114.894 10.332 115.102 10.5711C115.31 10.8102 115.414 11.0648 115.414 11.3351C115.414 11.6054 115.352 11.8548 115.227 12.0835C115.113 12.3122 114.884 12.5305 114.541 12.7384C114.198 12.9358 113.715 13.1229 113.091 13.2997C112.467 13.4764 111.657 13.6427 110.659 13.7986C110.95 12.6864 111.396 11.8132 112 11.1792ZM117.753 21.8127C118.304 21.3969 118.865 20.9084 119.437 20.3471C117.936 19.3837 116.814 19.2274 114.28 19.8399C114.248 19.8481 114.216 19.856 114.182 19.8637C113.871 19.9365 113.501 19.9729 113.075 19.9729C112.171 19.9729 111.485 19.7182 111.017 19.2089C110.56 18.6996 110.321 17.894 110.3 16.7922C112.15 16.6051 113.683 16.3452 114.9 16.0126C116.126 15.68 117.098 15.2746 117.815 14.7965C118.543 14.3183 119.052 13.7778 119.343 13.1749C119.634 12.5616 119.78 11.886 119.78 11.148C119.78 10.6491 119.66 10.1501 119.421 9.65121C119.182 9.15228 118.834 8.70533 118.377 8.31033C117.919 7.90495 117.352 7.57752 116.677 7.32806C116.012 7.07859 115.248 6.95386 114.385 6.95386C113.512 6.95386 112.686 7.07859 111.906 7.32806C111.137 7.56714 110.425 7.90495 109.77 8.34151C109.125 8.77808 108.543 9.30299 108.024 9.91627C107.504 10.5191 107.062 11.1844 106.698 11.912C106.345 12.6292 106.069 13.3984 105.872 14.2196C105.685 15.0407 105.591 15.8827 105.591 16.7454C105.591 17.7745 105.747 18.71 106.059 19.5519C106.381 20.3939 106.828 21.1163 107.4 21.7191C107.982 22.3116 108.673 22.7742 109.474 23.1068C110.274 23.429 111.152 23.5901 112.109 23.5901C112.878 23.5901 113.585 23.5278 114.229 23.403C114.884 23.2783 115.497 23.086 116.069 22.8262C116.651 22.5559 117.212 22.2181 117.753 21.8127Z" fill="black"/>
<path fill-rule="evenodd" clip-rule="evenodd" d="M18.605 10.8362C19.2079 10.1917 19.9095 9.86949 20.7099 9.86949C21.1672 9.86949 21.4999 9.98902 21.7077 10.2281C21.9156 10.4672 22.0196 10.7218 22.0196 10.9921C22.0196 11.2624 21.9572 11.5118 21.8325 11.7405C21.7182 11.9692 21.4895 12.1874 21.1465 12.3953C20.8035 12.5928 20.3201 12.7799 19.6964 12.9566C19.0728 13.1334 18.262 13.2997 17.2642 13.4556C17.5552 12.3434 18.0021 11.4702 18.605 10.8362ZM24.3584 21.4697C24.9092 21.0539 25.4705 20.5654 26.0422 20.0041C24.5419 19.0407 23.4196 18.8844 20.8858 19.4969C20.8536 19.505 20.821 19.513 20.7879 19.5207C20.476 19.5935 20.107 19.6299 19.6809 19.6299C18.7765 19.6299 18.0905 19.3752 17.6228 18.8659C17.1654 18.3566 16.9263 17.551 16.9055 16.4492C18.7557 16.2621 20.2889 16.0022 21.5051 15.6696C22.7316 15.337 23.7035 14.9316 24.4207 14.4534C25.1483 13.9753 25.6576 13.4348 25.9487 12.8319C26.2397 12.2186 26.3853 11.543 26.3853 10.805C26.3853 10.3061 26.2657 9.80713 26.0266 9.30819C25.7876 8.80926 25.4394 8.36231 24.982 7.96731C24.5247 7.56193 23.9581 7.23451 23.2825 6.98504C22.6173 6.73557 21.8533 6.61084 20.9906 6.61084C20.1174 6.61084 19.2911 6.73557 18.5115 6.98504C17.7423 7.22412 17.0302 7.56193 16.3754 7.9985C15.731 8.43506 15.1489 8.95997 14.6292 9.57325C14.1094 10.1761 13.6677 10.8414 13.3039 11.569C12.9504 12.2862 12.675 13.0554 12.4775 13.8765C12.2904 14.6977 12.1968 15.5396 12.1968 16.4024C12.1968 17.4314 12.3528 18.3669 12.6646 19.2089C12.9868 20.0508 13.4338 20.7733 14.0055 21.3761C14.5876 21.9686 15.2788 22.4312 16.0792 22.7638C16.8795 23.086 17.7579 23.2471 18.7142 23.2471C19.4833 23.2471 20.1902 23.1848 20.8346 23.06C21.4895 22.9353 22.1027 22.743 22.6745 22.4831C23.2565 22.2129 23.8178 21.8751 24.3584 21.4697Z" fill="black"/>
<path fill-rule="evenodd" clip-rule="evenodd" d="M85.5091 10.7739C86.1639 10.4205 86.8862 10.2438 87.6763 10.2438H87.9726L87.3957 14.7186C87.2189 15.415 87.0059 16.0698 86.7564 16.6831C86.5069 17.2964 86.2316 17.8317 85.9301 18.289C85.6391 18.7464 85.3273 19.1102 84.9946 19.3805C84.6618 19.6403 84.3188 19.7702 83.9655 19.7702C83.7369 19.7702 83.5237 19.7183 83.3262 19.6143C83.1391 19.5104 82.9727 19.3493 82.8273 19.131C82.6923 18.9023 82.5829 18.6061 82.4999 18.2423C82.4166 17.8785 82.3752 17.4367 82.3752 16.917C82.3752 16.0023 82.4999 15.1447 82.7494 14.3444C83.0091 13.5336 83.373 12.8268 83.8408 12.2239C84.3085 11.6106 84.8645 11.1273 85.5091 10.7739ZM84.7139 22.8106C85.535 22.2805 86.2731 21.5581 86.9279 20.6434C87.6958 22.3578 88.6809 22.8887 91.0753 23.3407L93.0398 7.63995C92.2706 7.36968 91.491 7.18258 90.7011 7.07865C89.9109 6.97471 89.1316 6.92273 88.3624 6.92273C86.7823 6.92273 85.3323 7.21376 84.0123 7.79586C82.6923 8.37796 81.5488 9.16272 80.5821 10.1502C79.6257 11.1377 78.8773 12.2915 78.3369 13.6115C77.8068 14.9212 77.5417 16.3089 77.5417 17.7745C77.5417 18.7724 77.6665 19.6403 77.9159 20.3783C78.1654 21.1059 78.4979 21.7088 78.9138 22.187C79.3295 22.6547 79.8078 23.0081 80.3482 23.2472C80.8887 23.4759 81.45 23.5902 82.0321 23.5902C83.0091 23.5902 83.9031 23.3303 84.7139 22.8106Z" fill="black"/>
<path fill-rule="evenodd" clip-rule="evenodd" d="M72.5841 0L69.7465 23.3407C73.641 22.1219 74.7848 20.6633 75.2433 17.3722L75.3272 16.6831L76.6998 5.39112C76.8749 3.25194 75.8623 0.897469 72.5841 0Z" fill="black"/>
<path fill-rule="evenodd" clip-rule="evenodd" d="M27.7222 23.3407L29.6868 7.1722H29.7873C31.709 7.17913 32.6456 7.59517 33.7718 9.62008C34.4578 8.70538 35.1804 8.02974 35.9391 7.59317C36.6978 7.14622 37.4929 6.92273 38.3246 6.92273C39.2392 6.92273 39.9982 7.21897 40.601 7.81145C41.2037 8.40394 41.5885 9.26668 41.7547 10.3997C42.472 9.20432 43.2568 8.32598 44.1091 7.76468C44.9613 7.20338 45.923 6.92273 46.9935 6.92273C47.6693 6.92273 48.2773 7.05785 48.8178 7.32811C49.3582 7.59838 49.8053 7.99335 50.1586 8.51308C50.512 9.03281 50.7564 9.67724 50.8914 10.4464C51.0371 11.2052 51.0474 12.0784 50.9226 13.0658L50.2246 18.9637C49.8215 22.3506 48.6858 23.3372 44.9755 23.3407H44.9354L46.1516 13.0658C46.2037 12.6293 46.2192 12.2603 46.1984 11.9588C46.1881 11.6574 46.1413 11.4183 46.058 11.2416C45.9854 11.0649 45.8762 10.9402 45.7306 10.8674C45.585 10.7843 45.4135 10.7427 45.2161 10.7427C44.894 10.7427 44.5821 10.831 44.2806 11.0077C43.9896 11.174 43.709 11.4235 43.4386 11.7561C43.1789 12.0784 42.9397 12.4734 42.7214 12.9411C42.5031 13.3985 42.3108 13.913 42.1445 14.4847L41.6175 18.9517L41.6166 18.9607L41.6161 18.9637C41.2241 22.2745 40.1346 23.3189 36.5636 23.3407H36.3288L37.545 13.0658C37.5971 12.6293 37.6127 12.2603 37.5918 11.9588C37.5815 11.6574 37.5347 11.4183 37.4514 11.2416C37.3788 11.0649 37.2696 10.9402 37.124 10.8674C36.9784 10.7843 36.8069 10.7427 36.6095 10.7427C36.2874 10.7427 35.9755 10.831 35.674 11.0077C35.3725 11.1845 35.0868 11.4391 34.8165 11.7717C34.5567 12.1044 34.3175 12.5097 34.0992 12.9879C33.881 13.4556 33.6886 13.9805 33.5224 14.5626L32.9922 18.9517C32.3015 22.2941 31.0803 23.1777 27.7222 23.3407Z" fill="black"/>
<path fill-rule="evenodd" clip-rule="evenodd" d="M57.84 19.3649C58.1413 19.6039 58.474 19.7755 58.8379 19.8794C59.2121 19.9833 59.5654 20.0353 59.8981 20.0353C60.4594 20.0353 60.9739 19.8482 61.4417 19.474C61.9197 19.0998 62.3304 18.6113 62.6734 18.0084C63.0164 17.3951 63.2815 16.6987 63.4686 15.9191C63.666 15.1395 63.7648 14.3444 63.7648 13.5336C63.7648 12.5045 63.6139 11.7561 63.3127 11.2884C63.0111 10.8206 62.611 10.5868 62.1121 10.5868C61.7794 10.5868 61.4311 10.7167 61.0675 10.9766C60.7139 11.226 60.3658 11.569 60.0228 12.0056C59.6901 12.4422 59.373 12.9567 59.0717 13.5492C58.7805 14.1417 58.531 14.7757 58.3233 15.4514L57.84 19.3649ZM58.682 10.1346C59.4304 9.13674 60.2514 8.35195 61.1454 7.78027C62.0497 7.20859 63.0164 6.92273 64.0455 6.92273C64.7106 6.92273 65.3187 7.04226 65.8697 7.28134C66.4204 7.51001 66.8935 7.87382 67.2885 8.37275C67.6939 8.87169 68.0058 9.51094 68.224 10.2905C68.4526 11.0597 68.5671 11.9796 68.5671 13.0502C68.5671 14.4639 68.3488 15.81 67.9122 17.0885C67.4859 18.3566 66.9091 19.474 66.1815 20.4407C65.4537 21.4074 64.6118 22.1766 63.6557 22.7483C62.7096 23.3096 61.717 23.5902 60.6777 23.5902C60.0123 23.5902 59.4095 23.4811 58.8691 23.2628C58.3389 23.0445 57.8712 22.7535 57.4658 22.3896C56.5943 26.7703 55.3607 28.0397 52.0087 28.4704L54.5969 7.1722C57.0407 7.69839 58.0204 8.2836 58.682 10.1346Z" fill="black"/>
<path fill-rule="evenodd" clip-rule="evenodd" d="M95.5584 19.8482V19.5832C95.5584 19.4792 95.5637 19.3337 95.574 19.1466C95.5949 18.9491 95.6208 18.6944 95.652 18.3826C95.6937 18.0604 95.7455 17.6394 95.8079 17.1197L96.6342 10.5088C95.1945 9.97013 94.8735 9.29975 94.8724 7.67114L97.3203 7.17221L97.871 5.57128C98.8661 3.09561 100.005 2.49962 102.12 2.47913H102.356L101.764 7.20339H105.381C105.075 9.66607 104.309 10.4951 101.503 10.5088H101.358L100.579 16.8546C100.527 17.2808 100.485 17.6186 100.454 17.8681C100.423 18.1072 100.397 18.2943 100.376 18.4294C100.366 18.5541 100.361 18.6425 100.361 18.6944V18.7724C100.361 19.0738 100.428 19.3285 100.563 19.5364C100.709 19.7339 100.933 19.8326 101.234 19.8326C102.773 20.0118 103.26 20.6112 103.782 21.6967L104.009 22.187C103.365 22.6547 102.673 23.0081 101.935 23.2472C101.198 23.4759 100.454 23.5902 99.7058 23.5902C99.0821 23.5902 98.5208 23.5071 98.0219 23.3407C97.523 23.164 97.0917 22.9146 96.7278 22.5923C96.3745 22.2597 96.0938 21.8647 95.8858 21.4074C95.6884 20.95 95.5793 20.4303 95.5584 19.8482Z" fill="black"/>
<path fill-rule="evenodd" clip-rule="evenodd" d="M9.23154 17.9583L10.883 4.57954C15.2438 4.44773 16.5013 3.47211 17.182 0.556885H5.80009C1.66228 0.617859 0.42301 1.52295 0 4.57954H5.80009L3.52371 23.2739C7.28837 22.8095 8.73004 21.847 9.23154 17.9583Z" fill="black"/>
</g>
<defs>
<clipPath id="clip0_956_21">
<rect width="120" height="29" fill="white"/>
</clipPath>
</defs>
</svg>
